Coordinates
version=1
nRows=17
nColumns=36
inDegrees=yes

Units are S.I. units (second, meters, Newtons, ...)
If the header above contains a line with 'inDegrees', this indicates whether rotational values are in degrees (yes) or radians (no).

endheader
time	pelvis_tilt	pelvis_list	pelvis_rotation	pelvis_tx	pelvis_ty	pelvis_tz	hip_flexion_r	hip_adduction_r	hip_rotation_r	knee_angle_r	knee_angle_r_beta	ankle_angle_r	subtalar_angle_r	mtp_angle_r	hip_flexion_l	hip_adduction_l	hip_rotation_l	knee_angle_l	knee_angle_l_beta	ankle_angle_l	subtalar_angle_l	mtp_angle_l	lumbar_extension	lumbar_bending	lumbar_rotation	arm_flex_r	arm_add_r	arm_rot_r	elbow_flex_r	pro_sup_r	arm_flex_l	arm_add_l	arm_rot_l	elbow_flex_l	pro_sup_l
      0.00000000	      3.66172663	     -5.54236371	     -1.90301750	      0.58002811	      0.91462680	      0.74934919	     14.92021151	      7.41687283	     -1.34754228	     18.76132082	      0.32744682	      2.44321585	    -13.20512260	     -7.25151064	     -8.80804450	     -6.71556642	     -1.32509858	     47.12979012	      0.82257001	      6.01943384	    -19.66688510	     -7.25151064	     -8.66926209	      5.04262653	      2.78567999	    -18.22593874	     -5.83442367	    -26.57941108	     41.93386999	     89.28135588	     17.68559838	    -10.49328905	     21.73815527	     29.63283236	     84.95396186
      0.01666670	      5.57876077	     -6.80381121	     -3.04080655	      0.57989473	      0.91850956	      0.75009120	     11.35698471	      8.92996611	     -1.53923503	     18.75781646	      0.32738566	      3.84304712	    -13.28459547	     -7.27871890	     -9.88401746	     -8.01103006	     -3.53091316	     50.93431633	      0.88897152	      6.96221005	    -23.16238331	     -7.27871890	    -10.80237190	      6.61104845	      1.81912274	    -13.96715050	     -6.70626359	    -25.24901349	     36.39967717	     89.78811190	     15.34091716	    -10.00501569	     15.04547009	     31.71881482	     84.00091131
      0.03333330	      7.49019626	     -7.77603855	     -3.37691428	      0.57886804	      0.92398976	      0.75227274	      7.61577016	     10.16777927	     -0.69526949	     18.19758668	      0.31760780	      4.40109083	    -13.30042296	     -7.30031880	    -10.61981648	     -8.90076431	     -3.92919384	     53.72805189	      0.93773141	     10.15571824	    -23.23922176	     -7.30031880	    -12.86603982	      7.89639115	      1.53364541	     -9.84814208	     -7.57940566	    -22.87522303	     30.57866361	     89.63245978	     14.65617587	     -9.97341723	     13.41679795	     31.06430407	     83.72884795
      0.05000000	      9.47139680	     -8.46775344	     -3.33271673	      0.57893829	      0.92889482	      0.75462307	      3.43739397	     11.09909708	     -0.42523893	     17.04453985	      0.29748334	      5.79645647	    -13.10300765	     -7.32145690	    -10.93394604	     -9.58148809	     -4.12447342	     56.12814711	      0.97962097	     12.78725565	    -23.28901087	     -7.32145690	    -15.41413970	      8.78035530	      1.15777071	     -6.30908380	     -8.37824173	    -18.43672294	     27.14547304	     88.03489363	     13.22526946	     -9.98105470	     11.37145424	     31.85969158	     82.64977740
      0.06666670	     11.20881012	     -8.49244261	     -3.32372390	      0.57974390	      0.93457098	      0.75695711	     -0.70187075	     11.26386002	     -0.00772590	     15.48452340	      0.27025592	      7.18508823	    -12.32916183	     -7.33479624	    -10.14523656	     -9.56600786	     -3.98190771	     58.47031391	      1.02049949	     14.47636288	    -22.82215197	     -7.33479624	    -17.55064691	      8.76447399	      1.55853019	     -3.65377301	     -8.58213974	    -15.62018573	     25.41979554	     86.86405695	     12.07547674	     -9.85554179	     10.27513530	     31.74526635	     82.41450991
      0.08333330	     12.58483798	     -7.92761963	     -3.34933119	      0.57846239	      0.94015937	      0.75798555	     -4.56625850	     10.66501470	      0.07586426	     13.66131092	      0.23843486	      8.57482100	    -10.91333594	     -7.36307732	     -8.10939999	     -8.90646566	     -3.48883543	     60.35844683	      1.05345363	     15.17922047	    -21.84909064	     -7.36307732	    -19.35318232	      8.11509054	      2.11529302	     -1.02049450	     -8.56777902	    -12.90310720	     24.30419099	     84.86951117	     10.82747974	     -9.83155044	      9.93165431	     31.02629344	     81.03155340
      0.10000000	     13.42258932	     -6.92917280	     -3.51857580	      0.57118180	      0.94305430	      0.75813239	     -7.80123049	      9.54387907	      0.14048654	     11.64922410	      0.20331732	      9.54176723	     -9.69300996	     -7.38671318	     -4.85333163	     -7.79485871	     -3.08423804	     61.41397098	      1.07187600	     14.80016157	    -20.53392042	     -7.38671318	    -20.74617728	      7.06272354	      1.80686954	      2.34910118	     -8.85537683	     -7.61355180	     23.49810343	     84.03991415	      8.77960321	    -10.15653086	      8.34546722	     30.98828509	     81.57026530
      0.11666670	     13.91733491	     -5.80706694	     -3.62269268	      0.55845365	      0.94300596	      0.75820105	    -10.38978120	      8.25736650	     -0.34247176	      9.80385268	      0.17110951	     10.65108074	     -7.94668531	     -7.40391959	     -0.97114360	     -6.58772464	     -2.93988304	     61.29535335	      1.06980573	     13.72877417	    -19.27749000	     -7.40391959	    -21.98122168	      5.85393603	      2.09795773	      5.30919671	     -8.98110531	     -4.44399297	     23.64566694	     82.46129767	      7.89056030	    -10.37574592	      8.07462668	     30.27536819	     81.30448066
      0.13333330	     14.19797028	     -4.77979975	     -3.75029050	      0.54467885	      0.94225897	      0.75795002	    -12.39236882	      7.10308243	     -0.70541287	      8.33357644	      0.14544835	     11.34900746	     -6.89892363	     -7.43462575	      2.86543687	     -5.48001478	     -3.23820379	     59.81078116	      1.04389506	     12.45899275	    -18.21188942	     -7.43462575	    -23.15495701	      4.64061625	      2.61907480	      8.13111594	     -9.40689235	     -1.13761441	     24.66658634	     80.77009551	      7.70646755	    -10.68276968	      8.56627775	     29.73373829	     80.98494979
      0.15000000	     14.19076669	     -3.94975822	     -3.78363128	      0.53360417	      0.94173749	      0.75562074	    -13.75774119	      6.19716614	     -1.17956868	      7.30678227	      0.12752741	     11.82569687	     -6.12314103	     -7.44193291	      6.50986889	     -4.53075937	     -3.69724911	     57.14865501	      0.99743219	     11.40858493	    -17.27082761	     -7.44193291	    -24.00717968	      3.63079174	      3.19773913	     10.79623710	     -9.84016325	      0.38176104	     26.20842096	     79.52147702	      8.12951952	    -10.61214030	      8.65117087	     28.51374412	     80.28151412
      0.16666670	     13.99071494	     -3.26142624	     -3.72318896	      0.52758504	      0.93932544	      0.75155573	    -14.73577155	      5.47899654	     -1.60459570	      6.57395657	      0.11473719	     11.97259041	     -5.92471264	     -7.44829689	      9.71862566	     -3.58849253	     -4.02740507	     53.49636642	      0.93368773	     10.39358205	    -16.57685569	     -7.44829689	    -24.62322876	      2.82555436	      3.58905507	     13.12979367	    -10.73175174	      2.52647330	     28.72830764	     80.78094259	      8.44076246	    -10.64725584	      9.05177079	     27.25893673	     82.43547515
      0.18333330	     13.57762308	     -2.63738018	     -3.78722749	      0.52738690	      0.93432197	      0.74847585	    -15.44752697	      4.80502061	     -1.88444712	      6.04010300	      0.10541968	     12.10717588	     -6.01660135	     -7.44953091	     12.47114146	     -2.69026880	     -4.30062115	     49.25807039	      0.85971551	      9.68411211	    -15.83532681	     -7.44953091	    -24.69458104	      2.16935811	      3.66206552	     15.44492917	    -11.21413867	      3.01564949	     30.79877760	     80.90052661	      7.91840932	    -10.58880295	      8.98924114	     25.94155978	     82.58672515
      0.20000000	     13.46878121	     -2.14247090	     -3.86632046	      0.53008149	      0.93028763	      0.74731807	    -16.58404458	      4.20478342	     -2.35309468	      5.61048469	      0.09792143	     12.63728366	     -5.71346804	     -7.45152904	     14.31791966	     -1.94630012	     -4.32390664	     44.81468096	      0.78216374	      8.93291428	    -15.24975786	     -7.45152904	    -24.83890610	      1.66288549	      4.03781182	     17.14063642	    -12.34766298	      4.99779325	     33.46068240	     81.83698421	      7.81453623	    -10.14922032	      8.55522535	     22.91649909	     83.40949277
      0.21666670	     13.14945870	     -1.62648205	     -4.11199544	      0.53323709	      0.92829929	      0.74713173	    -17.76254240	      3.58557059	     -2.53765090	      5.22423852	      0.09118016	     13.32322317	     -5.76224028	     -7.45178730	     15.90975345	     -1.34465209	     -4.28285438	     40.28466508	      0.70310004	      8.38287596	    -14.51947325	     -7.45178730	    -24.43987149	      1.06325123	      4.15363635	     18.86538266	    -12.85490665	      5.40951966	     35.09511108	     82.10660215	      6.78712403	    -10.06883205	      8.39242673	     21.20346121	     83.68552204
      0.23333330	     13.29912791	     -1.17293332	     -4.40138162	      0.53575637	      0.92670464	      0.74678542	    -19.77836187	      2.97946065	     -3.12044444	      4.91992698	      0.08586892	     14.35036635	     -4.74946164	     -7.45678444	     16.56490749	     -0.79631223	     -3.96214174	     35.44942210	      0.61870913	      7.98250192	    -14.03434869	     -7.45678444	    -24.46866772	      0.50587050	      4.72028297	     20.12667123	    -14.07391515	      6.90101458	     37.39542755	     82.98505394	      6.63296479	     -9.48422202	      7.06156093	     18.19239922	     85.10746482
      0.25000000	     13.08899467	     -0.67756375	     -4.69364963	      0.53802099	      0.92275482	      0.74725389	    -21.72196843	      2.42834506	     -3.05249401	      4.58112373	      0.07995569	     14.68035199	     -4.94958320	     -7.45270853	     17.25240816	     -0.23433833	     -3.25158825	     30.26274596	      0.52818456	      7.75315672	    -13.88512436	     -7.45270853	    -24.05225984	     -0.17261560	      4.98658919	     21.41225145	    -14.55347278	      6.91472439	     38.73762395	     82.79138973	      5.64016955	     -9.48229186	      6.66208027	     17.43383919	     84.85051839
      0.26666670	     12.84296776	     -0.10645390	     -4.99424131	      0.53791933	      0.91710529	      0.74784934	    -23.56848805	      1.71687130	     -3.89382259	      4.41848721	      0.07711715	     15.75552373	     -3.33873602	     -7.45152556	     17.64388930	      0.26987503	     -2.86587949	     24.79222100	      0.43270589	      8.83467315	    -12.08795377	     -7.45152556	    -23.65660137	     -0.92446796	      5.31208793	     22.26117834	    -15.35529913	      7.39868014	     41.26947219	     82.93062854	      5.29218557	     -9.17566555	      5.78886929	     15.32462984	     84.94322429
